<?xml version="1.0" encoding="UTF-8"?>
<svg version="1.1" xmlns="http://www.w3.org/2000/svg" width="512" height="512">
<path d="M0 0 C168.96 0 337.92 0 512 0 C512 168.96 512 337.92 512 512 C343.04 512 174.08 512 0 512 C0 343.04 0 174.08 0 0 Z " fill="#3873FE" transform="translate(0,0)"/>
<path d="M0 0 C72.6 0 145.2 0 220 0 C220 168.96 220 337.92 220 512 C149.71 512 79.42 512 7 512 C5.02 505.07 3.04 498.14 1 491 C-0.88246091 485.10860625 -0.88246091 485.10860625 -2.77124023 479.21923828 C-5.91973878 469.30140984 -8.4961491 459.22157289 -11.15625 449.16455078 C-12.17103483 445.3585204 -13.21868498 441.56217452 -14.27001953 437.76611328 C-19.82344358 417.67349074 -25.01581363 397.46651413 -29 377 C-29.33016113 375.32405762 -29.33016113 375.32405762 -29.66699219 373.61425781 C-41.28068384 314.36737425 -46.36813015 255.31477657 -41 195 C-40.92523438 194.12794922 -40.85046875 193.25589844 -40.7734375 192.35742188 C-40.29374679 186.88983608 -39.68149535 181.44585985 -39 176 C-38.87399414 174.97745117 -38.74798828 173.95490234 -38.61816406 172.90136719 C-36.18140051 153.43539691 -32.79646395 134.23558965 -29 115 C-28.80325684 113.97729004 -28.60651367 112.95458008 -28.40380859 111.90087891 C-24.61732389 92.21992503 -19.56672388 72.83418855 -14.61639404 53.42132568 C-13.84598756 50.3950067 -13.08122335 47.36727819 -12.31660461 44.3394928 C-11.62607995 41.60933407 -10.93122061 38.8802948 -10.23477173 36.15164185 C-9.77572265 34.35090372 -9.31977581 32.54937559 -8.86401367 30.74780273 C-6.19903292 20.38744045 -3.08279747 10.27599156 0 0 Z " fill="#F0F0F0" transform="translate(292,0)"/>
<path d="M0 0 C1.85625 -0.02416992 1.85625 -0.02416992 3.75 -0.04882812 C19.03597266 -0.05687337 32.45252351 3.75779846 43.84375 14.33203125 C54.05411162 25.68434121 55.4594127 37.86681302 55.09375 52.484375 C54.53802397 62.18488164 51.09078471 68.32188048 43.9375 74.9375 C41.56086507 76.88313896 39.18356391 78.60679073 36.625 80.3125 C44.01184389 82.63884607 51.1098862 82.64474017 58.8125 82.625 C60.05064453 82.64111328 61.28878906 82.65722656 62.56445312 82.67382812 C74.19320266 82.67991966 83.75145653 80.3900788 94.625 76.3125 C94.955 61.7925 95.285 47.2725 95.625 32.3125 C86.715 32.3125 77.805 32.3125 68.625 32.3125 C68.625 22.7425 68.625 13.1725 68.625 3.3125 C99.975 3.3125 131.325 3.3125 163.625 3.3125 C163.625 13.2125 163.625 23.1125 163.625 33.3125 C153.725 33.3125 143.825 33.3125 133.625 33.3125 C133.625 82.1525 133.625 130.9925 133.625 181.3125 C121.085 181.3125 108.545 181.3125 95.625 181.3125 C95.625 157.5525 95.625 133.7925 95.625 109.3125 C90.345 110.6325 85.065 111.9525 79.625 113.3125 C74.6328125 113.73828125 74.6328125 113.73828125 70.75 113.625 C69.43257812 113.60050781 68.11515625 113.57601562 66.7578125 113.55078125 C63.625 113.3125 63.625 113.3125 61.625 112.3125 C61.71201172 114.26929688 61.71201172 114.26929688 61.80078125 116.265625 C62.21907631 129.54172537 61.24330742 139.13302161 52.4375 149.6875 C41.23880348 161.1615743 27.14610869 165.48528906 11.45092773 165.79736328 C10.27087158 165.8023584 9.09081543 165.80735352 7.875 165.8125 C6.75101807 165.81878418 5.62703613 165.82506836 4.46899414 165.83154297 C-15.13378362 165.53533728 -30.63206772 157.73919533 -44.55078125 144.1953125 C-54.15207693 134.01607475 -69.375 112.02682017 -69.375 97.3125 C-65.80611571 95.2447565 -62.21797846 93.21304161 -58.625 91.1875 C-57.60921875 90.59839844 -56.5934375 90.00929688 -55.546875 89.40234375 C-54.5671875 88.85449219 -53.5875 88.30664062 -52.578125 87.7421875 C-51.67739258 87.22897949 -50.77666016 86.71577148 -49.84863281 86.18701172 C-47.375 85.3125 -47.375 85.3125 -45.1796875 85.9128418 C-43.05624833 87.55971365 -42.34734477 88.81450794 -41.296875 91.27734375 C-40.94455811 92.07253418 -40.59224121 92.86772461 -40.22924805 93.68701172 C-39.86484619 94.53279785 -39.50044434 95.37858398 -39.125 96.25 C-35.60763263 104.05514291 -31.81865808 110.66820641 -26.375 117.3125 C-25.73691406 118.158125 -25.09882813 119.00375 -24.44140625 119.875 C-18.29051276 127.13049629 -9.56525691 131.36149574 -0.375 133.3125 C6.66454664 133.88896681 13.24635583 133.55957641 19.625 130.3125 C23.3142061 127.17275012 26.39756831 124.3170723 26.9609375 119.3515625 C26.98027344 117.66160156 26.98027344 117.66160156 27 115.9375 C27.02835937 114.81601562 27.05671875 113.69453125 27.0859375 112.5390625 C26.5308901 108.6537307 25.35350794 107.08040877 22.625 104.3125 C17.70837137 101.44446663 13.4911917 100.24880347 7.859375 99.99609375 C6.96992188 99.95419922 6.08046875 99.91230469 5.1640625 99.86914062 C4.24367188 99.82982422 3.32328125 99.79050781 2.375 99.75 C1.43914062 99.70681641 0.50328125 99.66363281 -0.4609375 99.61914062 C-2.76548641 99.5133195 -5.07013839 99.41123443 -7.375 99.3125 C-8.51594922 95.20121391 -9.65523881 91.08947274 -10.79296875 86.97729492 C-11.18052922 85.5774278 -11.568549 84.17768776 -11.95703125 82.77807617 C-12.51421986 80.77034936 -13.06977391 78.76217654 -13.625 76.75390625 C-13.96015625 75.54420166 -14.2953125 74.33449707 -14.640625 73.08813477 C-15.375 70.3125 -15.375 70.3125 -15.375 69.3125 C-14.58738281 69.29832031 -13.79976563 69.28414063 -12.98828125 69.26953125 C-2.43557743 68.8074602 7.60177993 66.56694463 15.625 59.3125 C19.08413474 53.54727543 19.0421652 48.82260262 17.625 42.3125 C15.9790872 38.1062784 13.62536057 36.33717641 9.69873047 34.16796875 C5.94714298 32.62033953 2.26020582 32.68019965 -1.75 32.75 C-3.05469238 32.76099731 -3.05469238 32.76099731 -4.38574219 32.7722168 C-13.21487467 33.03317242 -21.14293237 35.2598096 -29.375 38.3125 C-30.12072266 38.58884277 -30.86644531 38.86518555 -31.63476562 39.14990234 C-33.550311 39.86507852 -35.46294508 40.58804364 -37.375 41.3125 C-38.94828857 37.52496752 -40.51466727 33.73465986 -42.07470703 29.94165039 C-42.60634392 28.65180654 -43.13986022 27.36273565 -43.67529297 26.07446289 C-44.44472387 24.22226143 -45.20683735 22.36702554 -45.96875 20.51171875 C-46.42958984 19.39627686 -46.89042969 18.28083496 -47.36523438 17.1315918 C-48.375 14.3125 -48.375 14.3125 -48.375 11.3125 C-31.98597226 4.64028713 -17.95409926 -0.04646506 0 0 Z " fill="#4B4C4F" transform="translate(345.375,153.6875)"/>
<path d="M0 0 C13.2 0 26.4 0 40 0 C42.30584995 5.76462486 44.54791393 11.38886378 46.55078125 17.23828125 C46.88008888 18.1972229 46.88008888 18.1972229 47.21604919 19.17553711 C47.91739978 21.22033399 48.61501734 23.26638093 49.3125 25.3125 C49.80290757 26.74443694 50.29346904 28.17632119 50.78417969 29.6081543 C53.76786176 38.32639553 56.68944881 47.06378706 59.57519531 55.81494141 C61.72582077 62.28881575 64.06678024 68.6818255 66.45288086 75.07202148 C68.60278246 80.85366761 70.59519339 86.67323174 72.52197266 92.5324707 C79.60540374 114.02440146 87.15256007 135.37477187 94.734375 156.6953125 C94.97676407 157.37721649 95.21915314 158.05912048 95.46888733 158.76168823 C96.67534064 162.15539298 97.88310845 165.54861787 99.09350586 168.94091797 C101.52278983 175.76072628 103.88338002 182.59767393 106.15356445 189.47216797 C107.42249564 193.2617594 108.84046819 196.98984168 110.265625 200.72265625 C111 203 111 203 111 206 C98.46 206 85.92 206 73 206 C70.55309 199.88272499 68.20718483 193.90460063 66.203125 187.65625 C65.9646283 186.92047729 65.72613159 186.18470459 65.48040771 185.42663574 C64.98476633 183.89466811 64.49081426 182.36215293 63.99853516 180.82910156 C63.24216299 178.47561478 62.47885141 176.12445531 61.71484375 173.7734375 C61.2313615 172.27617378 60.74827375 170.77878261 60.265625 169.28125 C60.03756165 168.57923462 59.80949829 167.87721924 59.57452393 167.15393066 C58 162.23042662 58 162.23042662 58 160 C33.25 160.33 8.5 160.66 -17 161 C-18.918125 166.754375 -20.83625 172.50875 -22.8125 178.4375 C-25.875 187.625 -28.9375 196.8125 -32 206 C-44.54 206 -57.08 206 -70 206 C-68.74052525 200.33236364 -67.53065965 195.21492741 -65.71484375 189.78125 C-65.49807983 189.12968933 -65.28131592 188.47812866 -65.0579834 187.80682373 C-64.35609976 185.70285613 -63.64718928 183.6013463 -62.9375 181.5 C-62.44078777 180.0192221 -61.94412499 178.53842762 -61.44750977 177.05761719 C-58.20327204 167.41532267 -54.83271316 157.82379826 -51.34985352 148.26489258 C-47.54493794 137.81133416 -43.94025184 127.29092925 -40.328125 116.76953125 C-38.44915253 111.29675919 -36.54631709 105.83302027 -34.625 100.375 C-31.49751901 91.47349161 -28.4333877 82.55041916 -25.375 73.625 C-25.12242432 72.88789795 -24.86984863 72.1507959 -24.60961914 71.39135742 C-21.87445152 63.40736766 -19.14357625 55.4219144 -16.41598511 47.43533325 C-15.26458401 44.06409195 -14.11264933 40.69303304 -12.96075439 37.32196045 C-12.15330791 34.95788122 -11.34687825 32.59345699 -10.54052734 30.22900391 C-10.02966375 28.73338431 -9.51876061 27.23777822 -9.0078125 25.7421875 C-8.79251892 25.10984192 -8.57722534 24.47749634 -8.35540771 23.82598877 C-5.63196985 15.86168484 -2.80177583 7.93836485 0 0 Z " fill="#FBFBFD" transform="translate(95,107)"/>
<path d="M0 0 C5.50027751 3.74859678 8.63279459 7.7657523 11 14 C11.53155949 17.09713825 11.56266657 20.11271912 11.53125 23.25 C11.5350769 24.10754883 11.53890381 24.96509766 11.54284668 25.84863281 C11.54555229 27.65040266 11.5382864 29.45221271 11.52148438 31.25390625 C11.50005407 33.9930884 11.52133101 36.72964827 11.546875 39.46875 C11.54423148 41.22917239 11.53910601 42.98959316 11.53125 44.75 C11.53934692 45.55856445 11.54744385 46.36712891 11.55578613 47.20019531 C11.44610983 53.93635237 9.49646544 59.15115077 5.03515625 64.2421875 C4.38417969 64.78101562 3.73320312 65.31984375 3.0625 65.875 C2.41410156 66.42929688 1.76570313 66.98359375 1.09765625 67.5546875 C-5.14633079 71.85687596 -11.65901246 71.70210414 -19 71 C-25.1748746 69.33138502 -29.59482101 65.33377594 -33 60 C-35.76862835 54.52235387 -36.46719283 50.19922544 -36.46875 44.1015625 C-36.47636353 43.26716644 -36.48397705 42.43277039 -36.49182129 41.5730896 C-36.50257389 39.81666031 -36.50549519 38.06016733 -36.50097656 36.30371094 C-36.50000506 33.63887169 -36.54166162 30.9769239 -36.5859375 28.3125 C-36.65671067 18.31929318 -36.47148649 10.70662475 -29.22753906 3.15136719 C-21.27116604 -4.44101927 -9.50408447 -5.48312565 0 0 Z " fill="#4A4B4E" transform="translate(421,35)"/>
<path d="M0 0 C0.66 0 1.32 0 2 0 C3.65659602 4.80055969 5.31053934 9.60202252 6.9621582 14.40429688 C7.52297464 16.03377214 8.0844827 17.66300957 8.64672852 19.29199219 C14.16858582 35.29310758 14.16858582 35.29310758 16.40649414 42.98144531 C17.29255246 45.99499124 18.30266127 48.96350759 19.3125 51.9375 C21.37577527 58.06352982 23.36181266 64.21221929 25.3125 70.375 C25.71239136 71.63364868 25.71239136 71.63364868 26.12036133 72.91772461 C28 78.87784079 28 78.87784079 28 80 C10.18 80 -7.64 80 -26 80 C-23.90939049 73.03130162 -21.73493546 66.17057078 -19.37890625 59.296875 C-18.21553979 55.78544142 -17.21693946 52.23854347 -16.22265625 48.67578125 C-13.94924192 40.64800406 -11.3379587 32.7455811 -8.68115234 24.83764648 C-7.86593443 22.41050921 -7.05568562 19.98175339 -6.24609375 17.55273438 C-5.72424364 15.99209207 -5.20211846 14.43154171 -4.6796875 12.87109375 C-4.44007294 12.15336288 -4.20045837 11.43563202 -3.95358276 10.69615173 C-2.73821092 7.08416616 -1.45966617 3.52074904 0 0 Z " fill="#3973FE" transform="translate(114,154)"/>
<path d="M0 0 C3.63 0 7.26 0 11 0 C11.061875 1.7325 11.12375 3.465 11.1875 5.25 C11.93547017 14.04903801 14.90983918 22.91864069 21.05859375 29.46875 C28.69011911 35.48798127 37.33597976 38.68776786 47 38 C56.37047635 36.56537281 64.06096223 32.43513125 70 25 C74.9133127 17.22441479 76.25777134 9.03044872 77 0 C80.63 0 84.26 0 88 0 C88.62015582 12.86823322 86.23311574 23.84848835 78 34 C77.51015625 34.61359375 77.0203125 35.2271875 76.515625 35.859375 C70.71655731 42.34744084 61.89994112 47.83681794 53.1875 48.9375 C51.6096875 48.9684375 51.6096875 48.9684375 50 49 C50 54.28 50 59.56 50 65 C46.04 65 42.08 65 38 65 C38 59.72 38 54.44 38 49 C36.55625 48.773125 35.1125 48.54625 33.625 48.3125 C22.49834183 46.06198781 14.04140388 40.32238825 7.3125 31.3125 C0.46573802 20.94983322 -0.58858959 12.11513574 0 0 Z " fill="#4A4C4E" transform="translate(365,77)"/>
</svg>
